<?xml version="1.0" standalone="no"?>
<!DOCTYPE svg PUBLIC "-//W3C//DTD SVG 20010904//EN"
 "http://www.w3.org/TR/2001/REC-SVG-20010904/DTD/svg10.dtd">
<svg version="1.0" xmlns="http://www.w3.org/2000/svg"
 viewBox="0 0 50.000000 50.000000"
 preserveAspectRatio="xMidYMid meet">
 <symbol id="css-file">
    <g transform="translate(0.000000,50.000000) scale(0.100000,-0.100000)"
    fill="#000000" stroke="none">
    <path d="M130 432 c-21 -17 -25 -29 -26 -88 -2 -50 3 -78 17 -106 31 -61 26
    -74 -41 -108 -56 -28 -80 -56 -80 -91 0 -5 83 -9 201 -9 l201 0 -6 25 c-6 24
    -5 25 49 25 48 0 55 2 55 20 0 26 -30 56 -75 74 -44 19 -53 40 -31 80 9 17 17
    57 19 89 3 77 -20 98 -102 98 -31 -1 -79 2 -106 5 -41 5 -55 2 -75 -14z m115
    -14 c14 -6 28 -21 30 -32 9 -37 -1 -110 -19 -144 -9 -18 -16 -48 -14 -65 3
    -28 10 -35 60 -59 31 -15 62 -36 68 -48 11 -20 9 -20 -170 -20 -179 0 -181 0
    -170 20 6 12 37 33 68 48 51 24 57 31 60 60 2 19 -4 46 -15 65 -23 39 -25 145
    -4 171 16 19 69 21 106 4z m126 -8 c15 -9 19 -22 19 -66 0 -30 -7 -69 -16 -85
    -25 -49 -15 -71 44 -102 66 -36 69 -57 7 -57 -31 0 -65 10 -105 30 -67 34 -72
    47 -41 108 14 28 19 56 18 110 l-2 72 28 0 c16 0 37 -5 48 -10z"/>
    </g>
 </symbol>
</svg>
