<svg xmlns="http://www.w3.org/2000/svg" xmlns:xlink="http://www.w3.org/1999/xlink" version="1.1" >
  <symbol id="empty-user">
    <g><path d="M50.4,5c-24.9,0-45,20.1-45,45c0,1.6,0.1,3.1,0.2,4.6C6.7,65.9,12.1,76,20.1,83.3c0.5,0.4,0.9,0.8,1.4,1.2   c2.6-2.1,5.5-3.7,8.8-4.6l7.7-2.3c2.6-0.8,4-3.6,3.1-6.1c-0.2-0.5-0.5-1-0.8-1.4L35,64.2c-3.8-4.3-5.5-10.1-4.6-15.8l1.2-7.9   c0.8-5.3,3.8-10,8.2-13h0c6.4-4.3,14.7-4.4,21.2-0.3l0.1,0c4.9,3.1,8.1,8.2,8.7,14l0.9,7.5c0.6,5.5-1.1,10.9-4.7,15.1L60.5,70   c-0.4,0.4-0.6,0.9-0.8,1.4c-0.9,2.6,0.5,5.4,3.1,6.1l7.7,2.3c3.2,1,6.2,2.6,8.8,4.6c0.5-0.4,1-0.8,1.4-1.2   c8-7.3,13.4-17.4,14.5-28.7c0.2-1.5,0.2-3,0.2-4.6C95.4,25.1,75.2,5,50.4,5z"></path></g>
  </symbol>
</svg>